<svg width="20" height="15" viewBox="0 0 20 15" fill="none" xmlns="http://www.w3.org/2000/svg">
<path d="M0 2.7C0 2.06348 0.252856 1.45303 0.702944 1.00294C1.15303 0.552856 1.76348 0.299999 2.4 0.299999H16.8C17.4365 0.299999 18.047 0.552856 18.4971 1.00294C18.9471 1.45303 19.2 2.06348 19.2 2.7V12.3C19.2 12.9365 18.9471 13.547 18.4971 13.9971C18.047 14.4471 17.4365 14.7 16.8 14.7H2.4C1.76348 14.7 1.15303 14.4471 0.702944 13.9971C0.252856 13.547 0 12.9365 0 12.3V2.7ZM18 2.7C18 2.38174 17.8736 2.07651 17.6485 1.85147C17.4235 1.62643 17.1183 1.5 16.8 1.5H2.4C2.08174 1.5 1.77652 1.62643 1.55147 1.85147C1.32643 2.07651 1.2 2.38174 1.2 2.7V12.3C1.2 12.6183 1.32643 12.9235 1.55147 13.1485C1.77652 13.3736 2.08174 13.5 2.4 13.5H16.8C17.1183 13.5 17.4235 13.3736 17.6485 13.1485C17.8736 12.9235 18 12.6183 18 12.3V2.7Z" fill="#FB0D1B"/>
<path d="M18 2.7C18 2.38174 17.8736 2.07651 17.6485 1.85147C17.4235 1.62643 17.1183 1.5 16.8 1.5H2.4C2.08174 1.5 1.77652 1.62643 1.55147 1.85147C1.32643 2.07651 1.2 2.38174 1.2 2.7V12.3C1.2 12.6183 1.32643 12.9235 1.55147 13.1485C1.77652 13.3736 2.08174 13.5 2.4 13.5H16.8C17.1183 13.5 17.4235 13.3736 17.6485 13.1485C17.8736 12.9235 18 12.6183 18 12.3V2.7Z" fill="#FB0D1B"/>
<path d="M7.94798 4.59265C7.85827 4.53941 7.7527 4.50778 7.64285 4.50122C7.533 4.49467 7.4231 4.51343 7.32519 4.55547C7.22729 4.59751 7.14516 4.66119 7.08779 4.73955C7.03043 4.8179 7.00005 4.9079 6.99998 4.99969V10.0002C7.00005 10.092 7.03043 10.182 7.08779 10.2603C7.14516 10.3387 7.22729 10.4024 7.32519 10.4444C7.4231 10.4865 7.533 10.5052 7.64285 10.4987C7.7527 10.4921 7.85827 10.4605 7.94798 10.4072L12.148 7.90699C12.2258 7.86073 12.2892 7.79966 12.3329 7.72886C12.3766 7.65806 12.3995 7.57958 12.3995 7.49994C12.3995 7.42031 12.3766 7.34183 12.3329 7.27103C12.2892 7.20023 12.2258 7.13916 12.148 7.0929L7.94798 4.59265Z" fill="white"/>
</svg>
