<svg width="167" height="18" viewBox="0 0 167 18" fill="none" xmlns="http://www.w3.org/2000/svg">
<g clip-path="url(#clip0_2021_33)">
<path d="M23.2286 0.171448L15.3428 17.0571H19.2857L20.5714 14.0571H26.3143L27.6 17.0571H31.6286L23.7428 0.171448H23.2286ZM21.7714 11.0571L23.4 7.02857L25.0285 11.0571H21.7714Z" fill="#FB0D1B"/>
<path d="M36.5143 13.7999V9.94281C36.9428 9.8571 37.3714 9.8571 37.9714 9.8571C40.0285 9.8571 41.0571 10.6285 41.0571 11.8285C41.0571 13.1142 40.1143 13.7999 38.1428 13.7999C37.3714 13.8857 37.0285 13.8857 36.5143 13.7999ZM36.5143 7.19996V3.68568C37.0285 3.59997 37.5428 3.51425 38.3143 3.51425C39.9428 3.51425 40.8 4.3714 40.8 5.31425C40.8 6.51425 39.8571 7.19996 37.9714 7.19996C37.2857 7.19996 36.9428 7.19996 36.5143 7.19996ZM32.7428 0.514262V16.8857C34.3714 17.0571 36.2571 17.2285 37.7143 17.2285C42.7714 17.2285 45.2571 14.9142 45.2571 12.3428C45.2571 10.4571 44.1428 9.08567 41.9143 8.39996C43.8 7.62853 44.8285 6.42853 44.8285 4.71425C44.8285 2.39997 42.3428 0.171406 37.4571 0.171406C36.0857 0.0856916 33.9428 0.257119 32.7428 0.514262Z" fill="#FB0D1B"/>
<path d="M46.7143 0.257141V17.0571H57.3428V13.4571H50.6571V10.2H56.7428V6.85713H50.6571V3.85713H57.3428V0.257141H46.7143Z" fill="#FB0D1B"/>
<path d="M63.2571 8.39997V3.77141C63.7714 3.6857 64.2 3.6857 64.8 3.6857C66.4285 3.6857 67.5428 4.54284 67.5428 5.91427C67.5428 7.62855 66.3428 8.48569 64.5428 8.48569C64.0286 8.39997 63.7714 8.39997 63.2571 8.39997ZM59.4 0.428564V17.0571H63.2571V11.5714C63.7714 11.5714 64.1143 11.6571 64.7143 11.6571C64.9714 11.6571 65.1428 11.6571 65.4 11.6571L68.2285 17.1428H72.6L68.6571 10.7143C70.4571 9.59997 71.5714 7.88569 71.5714 5.82855C71.5714 2.74285 69.5143 0.257137 64.2857 0.257137C62.3143 0.171423 60.7714 0.257136 59.4 0.428564Z" fill="#FB0D1B"/>
<path d="M74.2285 0.257141V17.0571H84.7714V13.4571H78.0857V0.257141H74.2285Z" fill="#FB0D1B"/>
<path d="M86.5714 0.257141V17.0571H97.2V13.4571H90.4285V10.2H96.6V6.85713H90.4285V3.85713H97.2V0.257141H86.5714Z" fill="#FB0D1B"/>
<path d="M102.6 8.39997V3.77141C103.114 3.6857 103.543 3.6857 104.143 3.6857C105.771 3.6857 106.886 4.54284 106.886 5.91427C106.886 7.62855 105.686 8.48569 103.886 8.48569C103.371 8.39997 103.114 8.39997 102.6 8.39997ZM98.7428 0.428564V17.0571H102.6V11.5714C103.114 11.5714 103.457 11.6571 104.057 11.6571C104.314 11.6571 104.486 11.6571 104.743 11.6571L107.571 17.1428H111.943L108 10.7143C109.8 9.59997 110.914 7.88569 110.914 5.82855C110.914 2.74285 108.857 0.257137 103.629 0.257137C101.743 0.171423 100.114 0.257136 98.7428 0.428564Z" fill="#FB0D1B"/>
<path d="M114.857 14.2285C115.714 14.2285 116.314 14.9142 116.314 15.6857C116.314 16.5428 115.629 17.2285 114.857 17.2285C114 17.2285 113.4 16.5428 113.4 15.6857C113.314 14.9142 114 14.2285 114.857 14.2285Z" fill="#5D5D5D"/>
<path d="M124.971 17.3142C119.657 17.3142 115.971 13.6285 115.971 8.65712C115.971 3.68571 119.743 0 124.971 0C127.029 0 128.914 0.685714 130.371 1.54285L129.429 3.94285C128.143 3.17142 126.429 2.65714 124.971 2.65714C121.286 2.65714 119.057 5.14285 119.057 8.65712C119.057 12.1714 121.371 14.6571 125.057 14.6571C126.514 14.6571 128.314 14.1428 129.6 13.3714L130.457 15.7714C129.086 16.6285 127.114 17.3142 124.971 17.3142Z" fill="#5D5D5D"/>
<path d="M139.2 17.3142C134.314 17.3142 130.8 13.6285 130.8 8.65712C130.8 3.68571 134.486 0 139.371 0C144.257 0 147.771 3.68571 147.771 8.65712C147.686 13.6285 144 17.3142 139.2 17.3142ZM139.286 2.57142C136.114 2.57142 133.886 5.14285 133.886 8.65712C133.886 12.1714 136.114 14.7428 139.286 14.7428C142.457 14.7428 144.686 12.0857 144.686 8.65712C144.686 5.14285 142.457 2.57142 139.286 2.57142Z" fill="#5D5D5D"/>
<path d="M163.286 17.0571L163.114 7.02856L157.8 15H157.457L152.143 6.94284L151.971 17.0571H149.143L149.829 0.0857144L150.257 0L157.714 11.1428L165 0L165.429 0.0857144L166.114 17.0571H163.286Z" fill="#5D5D5D"/>
<path d="M10.2857 0.257141V6.85713H3.85711V0.257141H-3.05176e-05V6.85713L1.71426 8.57141L-3.05176e-05 10.2V17.0571H3.85711V10.2857H10.2857V17.0571H14.2285V0.257141H10.2857Z" fill="#FB0D1B"/>
</g>
<defs>
<clipPath id="clip0_2021_33">
<rect width="166.286" height="18" fill="white"/>
</clipPath>
</defs>
</svg>
