<svg width="20" height="20" viewBox="0 0 20 20" fill="none" xmlns="http://www.w3.org/2000/svg">
<path d="M18.5712 18.5713L14.435 14.4352M14.435 14.4352C15.1425 13.7277 15.7037 12.8878 16.0866 11.9634C16.4695 11.039 16.6666 10.0482 16.6666 9.04766C16.6666 8.0471 16.4695 7.05634 16.0866 6.13194C15.7037 5.20755 15.1425 4.36762 14.435 3.66012C13.7275 2.95262 12.8876 2.3914 11.9632 2.0085C11.0388 1.6256 10.048 1.42853 9.04746 1.42853C8.04689 1.42853 7.05613 1.6256 6.13173 2.0085C5.20733 2.3914 4.3674 2.95262 3.6599 3.66012C2.23103 5.08898 1.4283 7.02694 1.4283 9.04766C1.4283 11.0684 2.23103 13.0063 3.6599 14.4352C5.08877 15.8641 7.02673 16.6668 9.04746 16.6668C11.0682 16.6668 13.0061 15.8641 14.435 14.4352Z" stroke="#888888" stroke-width="2" stroke-linecap="round" stroke-linejoin="round"/>
</svg>
