<svg width="20" height="20" viewBox="0 0 20 20" fill="none" xmlns="http://www.w3.org/2000/svg">
<path d="M10.8578 20H9.13782C8.4269 20 7.82591 19.4915 7.70882 18.791L7.50482 17.567C7.13657 17.4449 6.78171 17.2989 6.45082 17.134L5.42582 17.864C5.18084 18.04 4.89106 18.133 4.58782 18.133C4.20184 18.133 3.83853 17.9817 3.56482 17.707L2.34982 16.492C1.84556 15.9927 1.77953 15.2084 2.19282 14.627L2.90982 13.631C2.72953 13.2794 2.57479 12.9119 2.44982 12.54L1.20882 12.328C0.508272 12.2109 -0.000183105 11.6099 -0.000183105 10.899V9.183C-0.000183105 8.47249 0.508272 7.87109 1.20882 7.753L2.41582 7.55C2.53725 7.17178 2.68793 6.80177 2.86282 6.451L2.13182 5.425C1.71994 4.84677 1.78597 4.06284 2.28882 3.561L3.50782 2.345C3.77787 2.07093 4.14118 1.92 4.53082 1.92C4.83717 1.92 5.12833 2.01337 5.37282 2.19L6.37282 2.91C6.72246 2.7297 7.08991 2.57497 7.46382 2.45L7.67582 1.209C7.79291 0.508456 8.3939 0 9.10482 0H10.8208C11.5313 0 12.1327 0.508456 12.2508 1.209L12.4538 2.416C12.8444 2.54146 13.2295 2.69988 13.5978 2.886L14.6108 2.165C14.8548 1.98902 15.1442 1.896 15.4478 1.896C15.8331 1.896 16.1968 2.04693 16.4718 2.321L17.6868 3.536C18.1913 4.03549 18.2569 4.81984 17.8428 5.401L17.1208 6.41C17.2975 6.76029 17.4502 7.12909 17.5748 7.505L18.7988 7.713C19.5047 7.83098 20.0098 8.43322 19.9998 9.145V10.858C19.9998 11.5691 19.4914 12.1701 18.7908 12.287L17.5668 12.491C17.4471 12.8561 17.2941 13.2244 17.1128 13.585L17.8348 14.599C18.2465 15.1776 18.1809 15.9619 17.6788 16.464L16.4638 17.679C16.1881 17.9537 15.8244 18.105 15.4398 18.105C15.1347 18.105 14.8432 18.0113 14.5968 17.834L13.5898 17.114C13.2375 17.2906 12.8687 17.443 12.4948 17.567L12.2868 18.791C12.1697 19.4915 11.5687 20 10.8578 20ZM9.99982 5.677C7.61611 5.677 5.67682 7.61629 5.67682 10C5.67682 12.3837 7.61611 14.323 9.99982 14.323C12.3841 14.323 14.3238 12.3837 14.3238 10C14.3238 7.61629 12.3841 5.677 9.99982 5.677ZM9.99982 12.723C8.49835 12.723 7.27682 11.5015 7.27682 10C7.27682 8.49853 8.49835 7.277 9.99982 7.277C11.5018 7.277 12.7238 8.49853 12.7238 10C12.7238 11.5015 11.5018 12.723 9.99982 12.723Z" fill="#888888"/>
</svg>
